G04 ================== begin FILE IDENTIFICATION RECORD ==================*
G04 Layout Name:  PROIECT_CEF2_AAF.brd*
G04 Film Name:    SSTOP*
G04 File Format:  Gerber RS274X*
G04 File Origin:  Cadence Allegro 17.2-S025*
G04 Origin Date:  Sat Dec 13 16:17:07 2025*
G04 *
G04 Layer:  USER PART NUMBER/SILKSCREEN_TOP*
G04 Layer:  TOLERANCE/SILKSCREEN_TOP*
G04 Layer:  REF DES/SILKSCREEN_TOP*
G04 Layer:  PACKAGE GEOMETRY/SILKSCREEN_TOP*
G04 Layer:  DEVICE TYPE/SILKSCREEN_TOP*
G04 Layer:  COMPONENT VALUE/SILKSCREEN_TOP*
G04 Layer:  BOARD GEOMETRY/SILKSCREEN_TOP*
G04 *
G04 Offset:    (0.0000 0.0000)*
G04 Mirror:    No*
G04 Mode:      Positive*
G04 Rotation:  0*
G04 FullContactRelief:  No*
G04 UndefLineWidth:     0.1000*
G04 ================== end FILE IDENTIFICATION RECORD ====================*
%FSLAX25Y25*MOMM*%
%IR0*IPPOS*OFA0.00000B0.00000*MIA0B0*SFA1.00000B1.00000*%
%ADD10C,.1*%
%ADD11C,.1524*%
G75*
%LPD*%
G75*
G54D10*
G01X210000Y285000D02*
X242000D01*
G01X226000D02*
Y185000D01*
G01X210000D02*
X242000D01*
G01X321240D02*
X310570Y186670D01*
X301240Y193330D01*
X293240Y203330D01*
X287910Y215000D01*
X285240Y228330D01*
Y241670D01*
X287910Y255000D01*
X293240Y266670D01*
X301240Y276670D01*
X310570Y283330D01*
X321240Y285000D01*
X331910Y283330D01*
X341240Y276670D01*
X349240Y266670D01*
X354570Y255000D01*
X357240Y241670D01*
Y228330D01*
X354570Y215000D01*
X349240Y203330D01*
X341240Y193330D01*
X331910Y186670D01*
X321240Y185000D01*
G01X383150Y285000D02*
X416480Y185000D01*
X449810Y285000D01*
G01X478390Y185000D02*
X511720Y285000D01*
X545050Y185000D01*
G01X533050Y220000D02*
X490390D01*
G01X668870Y185000D02*
X702200Y285000D01*
X735530Y185000D01*
G01X723530Y220000D02*
X680870D01*
G01X770770Y285000D02*
Y185000D01*
X824110D01*
G01X919350D02*
X866010D01*
Y285000D01*
X919350D01*
G01X898010Y236670D02*
X866010D01*
G01X959920Y185000D02*
X1015920Y285000D01*
G01X959920D02*
X1015920Y185000D01*
G01X1049830D02*
X1083160Y285000D01*
X1116490Y185000D01*
G01X1104490Y220000D02*
X1061830D01*
G01X1147730Y185000D02*
Y285000D01*
X1209070Y185000D01*
Y285000D01*
G01X1244310Y185000D02*
Y285000D01*
X1270970D01*
X1281640Y280000D01*
X1289640Y273330D01*
X1296310Y263330D01*
X1301640Y251660D01*
X1302970Y235000D01*
X1301640Y218330D01*
X1296310Y206670D01*
X1289640Y196660D01*
X1281640Y190000D01*
X1270970Y185000D01*
X1244310D01*
G01X1342210D02*
Y285000D01*
X1375550D01*
X1386210Y280000D01*
X1392880Y273330D01*
X1395550Y260000D01*
X1392880Y246670D01*
X1384880Y238330D01*
X1375550Y233330D01*
X1342210D01*
G01X1375550D02*
X1395550Y185000D01*
G01X1434790Y285000D02*
Y213330D01*
X1440120Y198330D01*
X1450790Y188330D01*
X1464120Y185000D01*
X1477450Y188330D01*
X1488120Y198330D01*
X1493450Y213330D01*
Y285000D01*
G01X1670600Y185000D02*
Y285000D01*
X1621270Y213330D01*
X1687930D01*
G01X1720510Y205000D02*
X1728510Y193330D01*
X1739170Y186670D01*
X1751170Y185000D01*
X1761840Y186670D01*
X1772510Y195000D01*
X1779170Y205000D01*
X1780510Y215000D01*
X1777840Y226660D01*
X1768510Y235000D01*
X1759170Y238330D01*
X1747170D01*
G01X1759170D02*
X1767170Y243330D01*
X1773840Y251660D01*
X1776510Y261670D01*
X1773840Y271670D01*
X1767170Y280000D01*
X1755170Y285000D01*
X1743170Y283330D01*
X1731170Y276670D01*
G01X1845080Y185000D02*
Y285000D01*
X1829080Y265000D01*
G01Y185000D02*
X1861080D01*
G01X1966990D02*
X1913650D01*
Y285000D01*
X1966990D01*
G01X1945650Y236670D02*
X1913650D01*
G01X2160130Y276670D02*
X2152130Y281670D01*
X2142800Y285000D01*
X2132130D01*
X2120130Y280000D01*
X2110800Y271670D01*
X2104130Y261670D01*
X2098800Y245000D01*
X2097470Y230000D01*
X2100130Y215000D01*
X2104130Y205000D01*
X2112130Y195000D01*
X2121470Y188330D01*
X2130800Y185000D01*
X2140130D01*
X2149470Y188330D01*
X2157470Y193330D01*
X2164130Y200000D01*
G01X2252710Y185000D02*
X2199370D01*
Y285000D01*
X2252710D01*
G01X2231370Y236670D02*
X2199370D01*
G01X2295950Y185000D02*
Y285000D01*
X2346610D01*
G01X2327950Y236670D02*
X2295950D01*
G01X2399190Y218330D02*
X2433850D01*
G01X2485090Y185000D02*
Y285000D01*
X2517090D01*
X2527760Y280000D01*
X2535760Y268330D01*
X2538430Y255000D01*
X2535760Y241670D01*
X2529090Y231670D01*
X2517090Y226660D01*
X2485090D01*
G01X2580330Y185000D02*
Y285000D01*
X2613670D01*
X2624330Y280000D01*
X2631000Y273330D01*
X2633670Y260000D01*
X2631000Y246670D01*
X2623000Y238330D01*
X2613670Y233330D01*
X2580330D01*
G01X2613670D02*
X2633670Y185000D01*
G01X2772150Y268330D02*
X2780150Y278330D01*
X2789480Y283330D01*
X2800150Y285000D01*
X2813480Y281670D01*
X2822810Y273330D01*
X2825480Y263330D01*
X2824150Y253330D01*
X2818810Y245000D01*
X2792150Y228330D01*
X2780150Y216670D01*
X2772150Y200000D01*
X2769480Y185000D01*
X2825480D01*
G01X2892720Y285000D02*
X2882050Y281670D01*
X2874050Y273330D01*
X2868720Y263330D01*
X2864720Y250000D01*
X2863390Y235000D01*
X2864720Y220000D01*
X2868720Y206670D01*
X2874050Y196660D01*
X2882050Y188330D01*
X2892720Y185000D01*
X2903390Y188330D01*
X2911390Y196660D01*
X2916720Y206670D01*
X2920720Y220000D01*
X2922050Y235000D01*
X2920720Y250000D01*
X2916720Y263330D01*
X2911390Y273330D01*
X2903390Y281670D01*
X2892720Y285000D01*
G01X2962630Y268330D02*
X2970630Y278330D01*
X2979960Y283330D01*
X2990630Y285000D01*
X3003960Y281670D01*
X3013290Y273330D01*
X3015960Y263330D01*
X3014630Y253330D01*
X3009290Y245000D01*
X2982630Y228330D01*
X2970630Y216670D01*
X2962630Y200000D01*
X2959960Y185000D01*
X3015960D01*
G01X3053870Y200000D02*
X3061870Y191670D01*
X3071200Y186670D01*
X3083200Y185000D01*
X3095200Y188330D01*
X3104530Y195000D01*
X3111200Y206670D01*
X3112530Y220000D01*
X3109870Y233330D01*
X3103200Y241670D01*
X3093870Y248330D01*
X3084530Y250000D01*
X3075200Y248330D01*
X3063200Y241670D01*
X3067200Y285000D01*
X3103200D01*
G01X3161110Y218330D02*
X3195770D01*
G01X3248350Y268330D02*
X3256350Y278330D01*
X3265680Y283330D01*
X3276350Y285000D01*
X3289680Y281670D01*
X3299010Y273330D01*
X3301680Y263330D01*
X3300350Y253330D01*
X3295010Y245000D01*
X3268350Y228330D01*
X3256350Y216670D01*
X3248350Y200000D01*
X3245680Y185000D01*
X3301680D01*
G01X3368920Y285000D02*
X3358250Y281670D01*
X3350250Y273330D01*
X3344920Y263330D01*
X3340920Y250000D01*
X3339590Y235000D01*
X3340920Y220000D01*
X3344920Y206670D01*
X3350250Y196660D01*
X3358250Y188330D01*
X3368920Y185000D01*
X3379590Y188330D01*
X3387590Y196660D01*
X3392920Y206670D01*
X3396920Y220000D01*
X3398250Y235000D01*
X3396920Y250000D01*
X3392920Y263330D01*
X3387590Y273330D01*
X3379590Y281670D01*
X3368920Y285000D01*
G01X3438830Y268330D02*
X3446830Y278330D01*
X3456160Y283330D01*
X3466830Y285000D01*
X3480160Y281670D01*
X3489490Y273330D01*
X3492160Y263330D01*
X3490830Y253330D01*
X3485490Y245000D01*
X3458830Y228330D01*
X3446830Y216670D01*
X3438830Y200000D01*
X3436160Y185000D01*
X3492160D01*
G01X3534070Y226660D02*
X3543400Y238330D01*
X3551400Y245000D01*
X3562070Y248330D01*
X3571400Y245000D01*
X3578070Y238330D01*
X3583400Y228330D01*
X3584730Y216670D01*
X3583400Y206670D01*
X3578070Y196660D01*
X3570070Y188330D01*
X3560730Y185000D01*
X3550070Y188330D01*
X3540730Y198330D01*
X3535400Y213330D01*
X3534070Y230000D01*
X3536730Y251660D01*
X3540730Y263330D01*
X3547400Y275000D01*
X3556730Y283330D01*
X3566070Y285000D01*
X3575400Y281670D01*
X3582070Y273330D01*
G01X250330Y533000D02*
Y603000D01*
X271170D01*
X277830Y599500D01*
X282000Y594830D01*
X283670Y585500D01*
X282000Y576170D01*
X277000Y570330D01*
X271170Y566830D01*
X250330D01*
G01X271170D02*
X283670Y533000D01*
G01X308670Y547000D02*
X313670Y538830D01*
X320330Y534170D01*
X327830Y533000D01*
X334500Y534170D01*
X341170Y540000D01*
X345330Y547000D01*
X346170Y554000D01*
X344500Y562160D01*
X338670Y568000D01*
X332830Y570330D01*
X325330D01*
G01X332830D02*
X337830Y573830D01*
X342000Y579670D01*
X343670Y586670D01*
X342000Y593670D01*
X337830Y599500D01*
X330330Y603000D01*
X322830Y601830D01*
X315330Y597170D01*
G01X560000Y914000D02*
X558830Y907330D01*
X554170Y901500D01*
X547170Y896500D01*
X539000Y893170D01*
X529670Y891500D01*
X520330D01*
X511000Y893170D01*
X502830Y896500D01*
X495830Y901500D01*
X491170Y907330D01*
X490000Y914000D01*
X491170Y920670D01*
X495830Y926500D01*
X502830Y931500D01*
X511000Y934830D01*
X520330Y936500D01*
X529670D01*
X539000Y934830D01*
X547170Y931500D01*
X554170Y926500D01*
X558830Y920670D01*
X560000Y914000D01*
G01X541330Y920670D02*
X560000Y930670D01*
G01Y984000D02*
X490000D01*
X540170Y953170D01*
Y994830D01*
G01X265330Y3290000D02*
X269500Y3283000D01*
X274500Y3278330D01*
X280330Y3276000D01*
X287000Y3278330D01*
X292000Y3283000D01*
X297000Y3290000D01*
X298670Y3299330D01*
Y3346000D01*
G01X352000Y3276000D02*
Y3346000D01*
X321170Y3295830D01*
X362830D01*
G01X939000Y594330D02*
X869000D01*
Y615170D01*
X872500Y621830D01*
X877170Y626000D01*
X886500Y627670D01*
X895830Y626000D01*
X901670Y621000D01*
X905170Y615170D01*
Y594330D01*
G01Y615170D02*
X939000Y627670D01*
G01X930840Y656830D02*
X936670Y662670D01*
X939000Y669330D01*
X936670Y676000D01*
X929670Y681830D01*
X919170Y686000D01*
X908670Y687670D01*
X895830D01*
X885330Y686000D01*
X876000Y681830D01*
X871330Y676830D01*
X869000Y671000D01*
X871330Y664330D01*
X876000Y659330D01*
X883000Y656000D01*
X892330Y654330D01*
X900500Y656000D01*
X908670Y660170D01*
X913330Y665170D01*
X914500Y671000D01*
X912170Y677670D01*
X906330Y682670D01*
X895830Y687670D01*
G01X1280000Y1060330D02*
X1210000D01*
Y1081170D01*
X1213500Y1087830D01*
X1218170Y1092000D01*
X1227500Y1093670D01*
X1236830Y1092000D01*
X1242670Y1087000D01*
X1246170Y1081170D01*
Y1060330D01*
G01Y1081170D02*
X1280000Y1093670D01*
G01X1269500Y1118670D02*
X1275330Y1123670D01*
X1278830Y1129500D01*
X1280000Y1137000D01*
X1277670Y1144500D01*
X1273000Y1150330D01*
X1264830Y1154500D01*
X1255500Y1155330D01*
X1246170Y1153670D01*
X1240330Y1149500D01*
X1235670Y1143670D01*
X1234500Y1137830D01*
X1235670Y1132000D01*
X1240330Y1124500D01*
X1210000Y1127000D01*
Y1149500D01*
G01X971000Y1796000D02*
X964330Y1797170D01*
X958500Y1801830D01*
X953500Y1808830D01*
X950170Y1817000D01*
X948500Y1826330D01*
Y1835670D01*
X950170Y1845000D01*
X953500Y1853170D01*
X958500Y1860170D01*
X964330Y1864830D01*
X971000Y1866000D01*
X977670Y1864830D01*
X983500Y1860170D01*
X988500Y1853170D01*
X991830Y1845000D01*
X993500Y1835670D01*
Y1826330D01*
X991830Y1817000D01*
X988500Y1808830D01*
X983500Y1801830D01*
X977670Y1797170D01*
X971000Y1796000D01*
G01X977670Y1814670D02*
X987670Y1796000D01*
G01X1015170Y1854330D02*
X1020170Y1861330D01*
X1026000Y1864830D01*
X1032670Y1866000D01*
X1041000Y1863670D01*
X1046830Y1857830D01*
X1048500Y1850830D01*
X1047670Y1843830D01*
X1044330Y1838000D01*
X1027670Y1826330D01*
X1020170Y1818170D01*
X1015170Y1806500D01*
X1013500Y1796000D01*
X1048500D01*
G01X1316000Y1426000D02*
X1314830Y1419330D01*
X1310170Y1413500D01*
X1303170Y1408500D01*
X1295000Y1405170D01*
X1285670Y1403500D01*
X1276330D01*
X1267000Y1405170D01*
X1258830Y1408500D01*
X1251830Y1413500D01*
X1247170Y1419330D01*
X1246000Y1426000D01*
X1247170Y1432670D01*
X1251830Y1438500D01*
X1258830Y1443500D01*
X1267000Y1446830D01*
X1276330Y1448500D01*
X1285670D01*
X1295000Y1446830D01*
X1303170Y1443500D01*
X1310170Y1438500D01*
X1314830Y1432670D01*
X1316000Y1426000D01*
G01X1297330Y1432670D02*
X1316000Y1442670D01*
G01X1305500Y1467670D02*
X1311330Y1472670D01*
X1314830Y1478500D01*
X1316000Y1486000D01*
X1313670Y1493500D01*
X1309000Y1499330D01*
X1300830Y1503500D01*
X1291500Y1504330D01*
X1282170Y1502670D01*
X1276330Y1498500D01*
X1271670Y1492670D01*
X1270500Y1486830D01*
X1271670Y1481000D01*
X1276330Y1473500D01*
X1246000Y1476000D01*
Y1498500D01*
G01X837770Y2282190D02*
X767770D01*
Y2303030D01*
X771270Y2309690D01*
X775940Y2313860D01*
X785270Y2315530D01*
X794600Y2313860D01*
X800440Y2308860D01*
X803940Y2303030D01*
Y2282190D01*
G01Y2303030D02*
X837770Y2315530D01*
G01Y2358860D02*
X767770D01*
X781770Y2348860D01*
G01X837770D02*
Y2368860D01*
G01X747000Y2978000D02*
X740330Y2979170D01*
X734500Y2983830D01*
X729500Y2990830D01*
X726170Y2999000D01*
X724500Y3008330D01*
Y3017670D01*
X726170Y3027000D01*
X729500Y3035170D01*
X734500Y3042170D01*
X740330Y3046830D01*
X747000Y3048000D01*
X753670Y3046830D01*
X759500Y3042170D01*
X764500Y3035170D01*
X767830Y3027000D01*
X769500Y3017670D01*
Y3008330D01*
X767830Y2999000D01*
X764500Y2990830D01*
X759500Y2983830D01*
X753670Y2979170D01*
X747000Y2978000D01*
G01X753670Y2996670D02*
X763670Y2978000D01*
G01X807000D02*
Y3048000D01*
X797000Y3034000D01*
G01Y2978000D02*
X817000D01*
G01X1404000Y3069000D02*
X1397330Y3070170D01*
X1391500Y3074830D01*
X1386500Y3081830D01*
X1383170Y3090000D01*
X1381500Y3099330D01*
Y3108670D01*
X1383170Y3118000D01*
X1386500Y3126170D01*
X1391500Y3133170D01*
X1397330Y3137830D01*
X1404000Y3139000D01*
X1410670Y3137830D01*
X1416500Y3133170D01*
X1421500Y3126170D01*
X1424830Y3118000D01*
X1426500Y3108670D01*
Y3099330D01*
X1424830Y3090000D01*
X1421500Y3081830D01*
X1416500Y3074830D01*
X1410670Y3070170D01*
X1404000Y3069000D01*
G01X1410670Y3087670D02*
X1420670Y3069000D01*
G01X1445670Y3083000D02*
X1450670Y3074830D01*
X1457330Y3070170D01*
X1464830Y3069000D01*
X1471500Y3070170D01*
X1478170Y3076000D01*
X1482330Y3083000D01*
X1483170Y3090000D01*
X1481500Y3098160D01*
X1475670Y3104000D01*
X1469830Y3106330D01*
X1462330D01*
G01X1469830D02*
X1474830Y3109830D01*
X1479000Y3115670D01*
X1480670Y3122670D01*
X1479000Y3129670D01*
X1474830Y3135500D01*
X1467330Y3139000D01*
X1459830Y3137830D01*
X1452330Y3133170D01*
G01X1225830Y3504330D02*
X1222330Y3499330D01*
X1220000Y3493500D01*
Y3486830D01*
X1223500Y3479330D01*
X1229330Y3473500D01*
X1236330Y3469330D01*
X1248000Y3466000D01*
X1258500Y3465170D01*
X1269000Y3466830D01*
X1276000Y3469330D01*
X1283000Y3474330D01*
X1287670Y3480170D01*
X1290000Y3486000D01*
Y3491830D01*
X1287670Y3497670D01*
X1284170Y3502670D01*
X1279500Y3506830D01*
G01X1231670Y3530170D02*
X1224670Y3535170D01*
X1221170Y3541000D01*
X1220000Y3547670D01*
X1222330Y3556000D01*
X1228170Y3561830D01*
X1235170Y3563500D01*
X1242170Y3562670D01*
X1248000Y3559330D01*
X1259670Y3542670D01*
X1267830Y3535170D01*
X1279500Y3530170D01*
X1290000Y3528500D01*
Y3563500D01*
G01X1996330Y205000D02*
Y275000D01*
X2017170D01*
X2023830Y271500D01*
X2028000Y266830D01*
X2029670Y257500D01*
X2028000Y248170D01*
X2023000Y242330D01*
X2017170Y238830D01*
X1996330D01*
G01X2017170D02*
X2029670Y205000D01*
G01X2073000D02*
X2078830Y206170D01*
X2085500Y209670D01*
X2089670Y215500D01*
X2091330Y223670D01*
X2089670Y231830D01*
X2084670Y238830D01*
X2077170Y242330D01*
X2068830D01*
X2063830Y244670D01*
X2059670Y250500D01*
X2058000Y258670D01*
X2060500Y266830D01*
X2066330Y272670D01*
X2073000Y275000D01*
X2079670Y272670D01*
X2085500Y266830D01*
X2088000Y258670D01*
X2086330Y250500D01*
X2082170Y244670D01*
X2077170Y242330D01*
X2068830D01*
X2061330Y238830D01*
X2056330Y231830D01*
X2054670Y223670D01*
X2056330Y215500D01*
X2060500Y209670D01*
X2067170Y206170D01*
X2073000Y205000D01*
G01X1885670Y1804000D02*
Y1753830D01*
X1889000Y1743330D01*
X1895670Y1736330D01*
X1904000Y1734000D01*
X1912330Y1736330D01*
X1919000Y1743330D01*
X1922330Y1753830D01*
Y1804000D01*
G01X1974000Y1734000D02*
Y1804000D01*
X1943170Y1753830D01*
X1984830D01*
G01X2089000Y1620670D02*
X2139170D01*
X2149670Y1624000D01*
X2156670Y1630670D01*
X2159000Y1639000D01*
X2156670Y1647330D01*
X2149670Y1654000D01*
X2139170Y1657330D01*
X2089000D01*
G01X2100670Y1683170D02*
X2093670Y1688170D01*
X2090170Y1694000D01*
X2089000Y1700670D01*
X2091330Y1709000D01*
X2097170Y1714830D01*
X2104170Y1716500D01*
X2111170Y1715670D01*
X2117000Y1712330D01*
X2128670Y1695670D01*
X2136830Y1688170D01*
X2148500Y1683170D01*
X2159000Y1681500D01*
Y1716500D01*
G01X1571670Y2353000D02*
Y2302830D01*
X1575000Y2292330D01*
X1581670Y2285330D01*
X1590000Y2283000D01*
X1598330Y2285330D01*
X1605000Y2292330D01*
X1608330Y2302830D01*
Y2353000D01*
G01X1631670Y2297000D02*
X1636670Y2288830D01*
X1643330Y2284170D01*
X1650830Y2283000D01*
X1657500Y2284170D01*
X1664170Y2290000D01*
X1668330Y2297000D01*
X1669170Y2304000D01*
X1667500Y2312160D01*
X1661670Y2318000D01*
X1655830Y2320330D01*
X1648330D01*
G01X1655830D02*
X1660830Y2323830D01*
X1665000Y2329670D01*
X1666670Y2336670D01*
X1665000Y2343670D01*
X1660830Y2349500D01*
X1653330Y2353000D01*
X1645830Y2351830D01*
X1638330Y2347170D01*
G01X1440330Y2611000D02*
Y2681000D01*
X1461170D01*
X1467830Y2677500D01*
X1472000Y2672830D01*
X1473670Y2663500D01*
X1472000Y2654170D01*
X1467000Y2648330D01*
X1461170Y2644830D01*
X1440330D01*
G01X1461170D02*
X1473670Y2611000D01*
G01X1501170Y2669330D02*
X1506170Y2676330D01*
X1512000Y2679830D01*
X1518670Y2681000D01*
X1527000Y2678670D01*
X1532830Y2672830D01*
X1534500Y2665830D01*
X1533670Y2658830D01*
X1530330Y2653000D01*
X1513670Y2641330D01*
X1506170Y2633170D01*
X1501170Y2621500D01*
X1499500Y2611000D01*
X1534500D01*
G01X1695000Y3232000D02*
X1693830Y3225330D01*
X1689170Y3219500D01*
X1682170Y3214500D01*
X1674000Y3211170D01*
X1664670Y3209500D01*
X1655330D01*
X1646000Y3211170D01*
X1637830Y3214500D01*
X1630830Y3219500D01*
X1626170Y3225330D01*
X1625000Y3232000D01*
X1626170Y3238670D01*
X1630830Y3244500D01*
X1637830Y3249500D01*
X1646000Y3252830D01*
X1655330Y3254500D01*
X1664670D01*
X1674000Y3252830D01*
X1682170Y3249500D01*
X1689170Y3244500D01*
X1693830Y3238670D01*
X1695000Y3232000D01*
G01X1676330Y3238670D02*
X1695000Y3248670D01*
G01Y3290330D02*
X1679830Y3292000D01*
X1667000Y3294500D01*
X1655330Y3297830D01*
X1642500Y3302000D01*
X1625000Y3308670D01*
Y3275330D01*
G01X1841330Y3501000D02*
Y3571000D01*
X1862170D01*
X1868830Y3567500D01*
X1873000Y3562830D01*
X1874670Y3553500D01*
X1873000Y3544170D01*
X1868000Y3538330D01*
X1862170Y3534830D01*
X1841330D01*
G01X1862170D02*
X1874670Y3501000D01*
G01X1916330D02*
X1918000Y3516170D01*
X1920500Y3529000D01*
X1923830Y3540670D01*
X1928000Y3553500D01*
X1934670Y3571000D01*
X1901330D01*
G01X2548000Y662000D02*
X2541330Y663170D01*
X2535500Y667830D01*
X2530500Y674830D01*
X2527170Y683000D01*
X2525500Y692330D01*
Y701670D01*
X2527170Y711000D01*
X2530500Y719170D01*
X2535500Y726170D01*
X2541330Y730830D01*
X2548000Y732000D01*
X2554670Y730830D01*
X2560500Y726170D01*
X2565500Y719170D01*
X2568830Y711000D01*
X2570500Y701670D01*
Y692330D01*
X2568830Y683000D01*
X2565500Y674830D01*
X2560500Y667830D01*
X2554670Y663170D01*
X2548000Y662000D01*
G01X2554670Y680670D02*
X2564670Y662000D01*
G01X2593830Y670160D02*
X2599670Y664330D01*
X2606330Y662000D01*
X2613000Y664330D01*
X2618830Y671330D01*
X2623000Y681830D01*
X2624670Y692330D01*
Y705170D01*
X2623000Y715670D01*
X2618830Y725000D01*
X2613830Y729670D01*
X2608000Y732000D01*
X2601330Y729670D01*
X2596330Y725000D01*
X2593000Y718000D01*
X2591330Y708670D01*
X2593000Y700500D01*
X2597170Y692330D01*
X2602170Y687670D01*
X2608000Y686500D01*
X2614670Y688830D01*
X2619670Y694670D01*
X2624670Y705170D01*
G01X2415000Y785000D02*
X2408330Y786170D01*
X2402500Y790830D01*
X2397500Y797830D01*
X2394170Y806000D01*
X2392500Y815330D01*
Y824670D01*
X2394170Y834000D01*
X2397500Y842170D01*
X2402500Y849170D01*
X2408330Y853830D01*
X2415000Y855000D01*
X2421670Y853830D01*
X2427500Y849170D01*
X2432500Y842170D01*
X2435830Y834000D01*
X2437500Y824670D01*
Y815330D01*
X2435830Y806000D01*
X2432500Y797830D01*
X2427500Y790830D01*
X2421670Y786170D01*
X2415000Y785000D01*
G01X2421670Y803670D02*
X2431670Y785000D01*
G01X2459170Y814160D02*
X2465000Y822330D01*
X2470000Y827000D01*
X2476670Y829330D01*
X2482500Y827000D01*
X2486670Y822330D01*
X2490000Y815330D01*
X2490830Y807170D01*
X2490000Y800170D01*
X2486670Y793160D01*
X2481670Y787330D01*
X2475830Y785000D01*
X2469170Y787330D01*
X2463330Y794330D01*
X2460000Y804830D01*
X2459170Y816500D01*
X2460830Y831670D01*
X2463330Y839830D01*
X2467500Y848000D01*
X2473330Y853830D01*
X2479170Y855000D01*
X2485000Y852670D01*
X2489170Y846830D01*
G01X2855330Y1716000D02*
Y1786000D01*
X2876170D01*
X2882830Y1782500D01*
X2887000Y1777830D01*
X2888670Y1768500D01*
X2887000Y1759170D01*
X2882000Y1753330D01*
X2876170Y1749830D01*
X2855330D01*
G01X2876170D02*
X2888670Y1716000D01*
G01X2932000D02*
Y1786000D01*
X2922000Y1772000D01*
G01Y1716000D02*
X2942000D01*
G01X2973670Y1730000D02*
X2978670Y1721830D01*
X2985330Y1717170D01*
X2992830Y1716000D01*
X2999500Y1717170D01*
X3006170Y1723000D01*
X3010330Y1730000D01*
X3011170Y1737000D01*
X3009500Y1745160D01*
X3003670Y1751000D01*
X2997830Y1753330D01*
X2990330D01*
G01X2997830D02*
X3002830Y1756830D01*
X3007000Y1762670D01*
X3008670Y1769670D01*
X3007000Y1776670D01*
X3002830Y1782500D01*
X2995330Y1786000D01*
X2987830Y1784830D01*
X2980330Y1780170D01*
G01X2787000Y1479330D02*
X2717000D01*
Y1500170D01*
X2720500Y1506830D01*
X2725170Y1511000D01*
X2734500Y1512670D01*
X2743830Y1511000D01*
X2749670Y1506000D01*
X2753170Y1500170D01*
Y1479330D01*
G01Y1500170D02*
X2787000Y1512670D01*
G01Y1566000D02*
X2717000D01*
X2767170Y1535170D01*
Y1576830D01*
G01X2513670Y1118000D02*
Y1067830D01*
X2517000Y1057330D01*
X2523670Y1050330D01*
X2532000Y1048000D01*
X2540330Y1050330D01*
X2547000Y1057330D01*
X2550330Y1067830D01*
Y1118000D01*
G01X2592000Y1048000D02*
Y1118000D01*
X2582000Y1104000D01*
G01Y1048000D02*
X2602000D01*
G01X2325330Y2325000D02*
Y2395000D01*
X2346170D01*
X2352830Y2391500D01*
X2357000Y2386830D01*
X2358670Y2377500D01*
X2357000Y2368170D01*
X2352000Y2362330D01*
X2346170Y2358830D01*
X2325330D01*
G01X2346170D02*
X2358670Y2325000D01*
G01X2402000D02*
Y2395000D01*
X2392000Y2381000D01*
G01Y2325000D02*
X2412000D01*
G01X2462000Y2395000D02*
X2455330Y2392670D01*
X2450330Y2386830D01*
X2447000Y2379830D01*
X2444500Y2370500D01*
X2443670Y2360000D01*
X2444500Y2349500D01*
X2447000Y2340170D01*
X2450330Y2333160D01*
X2455330Y2327330D01*
X2462000Y2325000D01*
X2468670Y2327330D01*
X2473670Y2333160D01*
X2477000Y2340170D01*
X2479500Y2349500D01*
X2480330Y2360000D01*
X2479500Y2370500D01*
X2477000Y2379830D01*
X2473670Y2386830D01*
X2468670Y2392670D01*
X2462000Y2395000D01*
G01X2469330Y1981000D02*
Y2051000D01*
X2490170D01*
X2496830Y2047500D01*
X2501000Y2042830D01*
X2502670Y2033500D01*
X2501000Y2024170D01*
X2496000Y2018330D01*
X2490170Y2014830D01*
X2469330D01*
G01X2490170D02*
X2502670Y1981000D01*
G01X2546000D02*
Y2051000D01*
X2536000Y2037000D01*
G01Y1981000D02*
X2556000D01*
G01X2590170Y2039330D02*
X2595170Y2046330D01*
X2601000Y2049830D01*
X2607670Y2051000D01*
X2616000Y2048670D01*
X2621830Y2042830D01*
X2623500Y2035830D01*
X2622670Y2028830D01*
X2619330Y2023000D01*
X2602670Y2011330D01*
X2595170Y2003170D01*
X2590170Y1991500D01*
X2588500Y1981000D01*
X2623500D01*
G01X2783330Y2944000D02*
X2787500Y2937000D01*
X2792500Y2932330D01*
X2798330Y2930000D01*
X2805000Y2932330D01*
X2810000Y2937000D01*
X2815000Y2944000D01*
X2816670Y2953330D01*
Y3000000D01*
G01X2860000Y2930000D02*
Y3000000D01*
X2850000Y2986000D01*
G01Y2930000D02*
X2870000D01*
G01X2752000Y3211330D02*
X2682000D01*
Y3232170D01*
X2685500Y3238830D01*
X2690170Y3243000D01*
X2699500Y3244670D01*
X2708830Y3243000D01*
X2714670Y3238000D01*
X2718170Y3232170D01*
Y3211330D01*
G01Y3232170D02*
X2752000Y3244670D01*
G01Y3288000D02*
X2682000D01*
X2696000Y3278000D01*
G01X2752000D02*
Y3298000D01*
G01X2722840Y3332170D02*
X2714670Y3338000D01*
X2710000Y3343000D01*
X2707670Y3349670D01*
X2710000Y3355500D01*
X2714670Y3359670D01*
X2721670Y3363000D01*
X2729830Y3363830D01*
X2736830Y3363000D01*
X2743840Y3359670D01*
X2749670Y3354670D01*
X2752000Y3348830D01*
X2749670Y3342170D01*
X2742670Y3336330D01*
X2732170Y3333000D01*
X2720500Y3332170D01*
X2705330Y3333830D01*
X2697170Y3336330D01*
X2689000Y3340500D01*
X2683170Y3346330D01*
X2682000Y3352170D01*
X2684330Y3358000D01*
X2690170Y3362170D01*
G01X2218330Y2841000D02*
Y2911000D01*
X2239170D01*
X2245830Y2907500D01*
X2250000Y2902830D01*
X2251670Y2893500D01*
X2250000Y2884170D01*
X2245000Y2878330D01*
X2239170Y2874830D01*
X2218330D01*
G01X2239170D02*
X2251670Y2841000D01*
G01X2295000D02*
Y2911000D01*
X2285000Y2897000D01*
G01Y2841000D02*
X2305000D01*
G01X2355000D02*
Y2911000D01*
X2345000Y2897000D01*
G01Y2841000D02*
X2365000D01*
G01X2427330Y3383170D02*
X2422330Y3386670D01*
X2416500Y3389000D01*
X2409830D01*
X2402330Y3385500D01*
X2396500Y3379670D01*
X2392330Y3372670D01*
X2389000Y3361000D01*
X2388170Y3350500D01*
X2389830Y3340000D01*
X2392330Y3333000D01*
X2397330Y3326000D01*
X2403170Y3321330D01*
X2409000Y3319000D01*
X2414830D01*
X2420670Y3321330D01*
X2425670Y3324830D01*
X2429830Y3329500D01*
G01X2469000Y3319000D02*
Y3389000D01*
X2459000Y3375000D01*
G01Y3319000D02*
X2479000D01*
G01X2264000Y3620000D02*
X2257330Y3621170D01*
X2251500Y3625830D01*
X2246500Y3632830D01*
X2243170Y3641000D01*
X2241500Y3650330D01*
Y3659670D01*
X2243170Y3669000D01*
X2246500Y3677170D01*
X2251500Y3684170D01*
X2257330Y3688830D01*
X2264000Y3690000D01*
X2270670Y3688830D01*
X2276500Y3684170D01*
X2281500Y3677170D01*
X2284830Y3669000D01*
X2286500Y3659670D01*
Y3650330D01*
X2284830Y3641000D01*
X2281500Y3632830D01*
X2276500Y3625830D01*
X2270670Y3621170D01*
X2264000Y3620000D01*
G01X2270670Y3638670D02*
X2280670Y3620000D01*
G01X2324000D02*
X2329830Y3621170D01*
X2336500Y3624670D01*
X2340670Y3630500D01*
X2342330Y3638670D01*
X2340670Y3646830D01*
X2335670Y3653830D01*
X2328170Y3657330D01*
X2319830D01*
X2314830Y3659670D01*
X2310670Y3665500D01*
X2309000Y3673670D01*
X2311500Y3681830D01*
X2317330Y3687670D01*
X2324000Y3690000D01*
X2330670Y3687670D01*
X2336500Y3681830D01*
X2339000Y3673670D01*
X2337330Y3665500D01*
X2333170Y3659670D01*
X2328170Y3657330D01*
X2319830D01*
X2312330Y3653830D01*
X2307330Y3646830D01*
X2305670Y3638670D01*
X2307330Y3630500D01*
X2311500Y3624670D01*
X2318170Y3621170D01*
X2324000Y3620000D01*
G01X3307330Y301000D02*
Y371000D01*
X3328170D01*
X3334830Y367500D01*
X3339000Y362830D01*
X3340670Y353500D01*
X3339000Y344170D01*
X3334000Y338330D01*
X3328170Y334830D01*
X3307330D01*
G01X3328170D02*
X3340670Y301000D01*
G01X3368170Y330160D02*
X3374000Y338330D01*
X3379000Y343000D01*
X3385670Y345330D01*
X3391500Y343000D01*
X3395670Y338330D01*
X3399000Y331330D01*
X3399830Y323170D01*
X3399000Y316170D01*
X3395670Y309160D01*
X3390670Y303330D01*
X3384830Y301000D01*
X3378170Y303330D01*
X3372330Y310330D01*
X3369000Y320830D01*
X3368170Y332500D01*
X3369830Y347670D01*
X3372330Y355830D01*
X3376500Y364000D01*
X3382330Y369830D01*
X3388170Y371000D01*
X3394000Y368670D01*
X3398170Y362830D01*
G01X3069670Y753000D02*
Y823000D01*
X3086330D01*
X3093000Y819500D01*
X3098000Y814830D01*
X3102170Y807830D01*
X3105500Y799670D01*
X3106330Y788000D01*
X3105500Y776330D01*
X3102170Y768170D01*
X3098000Y761160D01*
X3093000Y756500D01*
X3086330Y753000D01*
X3069670D01*
G01X3132170Y811330D02*
X3137170Y818330D01*
X3143000Y821830D01*
X3149670Y823000D01*
X3158000Y820670D01*
X3163830Y814830D01*
X3165500Y807830D01*
X3164670Y800830D01*
X3161330Y795000D01*
X3144670Y783330D01*
X3137170Y775170D01*
X3132170Y763500D01*
X3130500Y753000D01*
X3165500D01*
G01X3269330Y1491000D02*
Y1561000D01*
X3290170D01*
X3296830Y1557500D01*
X3301000Y1552830D01*
X3302670Y1543500D01*
X3301000Y1534170D01*
X3296000Y1528330D01*
X3290170Y1524830D01*
X3269330D01*
G01X3290170D02*
X3302670Y1491000D01*
G01X3346000D02*
Y1561000D01*
X3336000Y1547000D01*
G01Y1491000D02*
X3356000D01*
G01X3404330D02*
X3406000Y1506170D01*
X3408500Y1519000D01*
X3411830Y1530670D01*
X3416000Y1543500D01*
X3422670Y1561000D01*
X3389330D01*
G01X3422000Y2476330D02*
X3429000Y2480500D01*
X3433670Y2485500D01*
X3436000Y2491330D01*
X3433670Y2498000D01*
X3429000Y2503000D01*
X3422000Y2508000D01*
X3412670Y2509670D01*
X3366000D01*
G01X3377670Y2537170D02*
X3370670Y2542170D01*
X3367170Y2548000D01*
X3366000Y2554670D01*
X3368330Y2563000D01*
X3374170Y2568830D01*
X3381170Y2570500D01*
X3388170Y2569670D01*
X3394000Y2566330D01*
X3405670Y2549670D01*
X3413830Y2542170D01*
X3425500Y2537170D01*
X3436000Y2535500D01*
Y2570500D01*
G01X3422000Y2188330D02*
X3429000Y2192500D01*
X3433670Y2197500D01*
X3436000Y2203330D01*
X3433670Y2210000D01*
X3429000Y2215000D01*
X3422000Y2220000D01*
X3412670Y2221670D01*
X3366000D01*
G01X3422000Y2246670D02*
X3430170Y2251670D01*
X3434830Y2258330D01*
X3436000Y2265830D01*
X3434830Y2272500D01*
X3429000Y2279170D01*
X3422000Y2283330D01*
X3415000Y2284170D01*
X3406840Y2282500D01*
X3401000Y2276670D01*
X3398670Y2270830D01*
Y2263330D01*
G01Y2270830D02*
X3395170Y2275830D01*
X3389330Y2280000D01*
X3382330Y2281670D01*
X3375330Y2280000D01*
X3369500Y2275830D01*
X3366000Y2268330D01*
X3367170Y2260830D01*
X3371830Y2253330D01*
G01X3050000Y3038670D02*
X2980000D01*
Y3055330D01*
X2983500Y3062000D01*
X2988170Y3067000D01*
X2995170Y3071170D01*
X3003330Y3074500D01*
X3015000Y3075330D01*
X3026670Y3074500D01*
X3034830Y3071170D01*
X3041840Y3067000D01*
X3046500Y3062000D01*
X3050000Y3055330D01*
Y3038670D01*
G01Y3117000D02*
X2980000D01*
X2994000Y3107000D01*
G01X3050000D02*
Y3127000D01*
G01X3105000Y3540330D02*
X3035000D01*
Y3561170D01*
X3038500Y3567830D01*
X3043170Y3572000D01*
X3052500Y3573670D01*
X3061830Y3572000D01*
X3067670Y3567000D01*
X3071170Y3561170D01*
Y3540330D01*
G01Y3561170D02*
X3105000Y3573670D01*
G01Y3617000D02*
X3035000D01*
X3049000Y3607000D01*
G01X3105000D02*
Y3627000D01*
G01Y3687000D02*
X3035000D01*
X3085170Y3656170D01*
Y3697830D01*
G01X3862000Y897330D02*
X3792000D01*
Y918170D01*
X3795500Y924830D01*
X3800170Y929000D01*
X3809500Y930670D01*
X3818830Y929000D01*
X3824670Y924000D01*
X3828170Y918170D01*
Y897330D01*
G01Y918170D02*
X3862000Y930670D01*
G01Y974000D02*
X3792000D01*
X3806000Y964000D01*
G01X3862000D02*
Y984000D01*
G01X3851500Y1015670D02*
X3857330Y1020670D01*
X3860830Y1026500D01*
X3862000Y1034000D01*
X3859670Y1041500D01*
X3855000Y1047330D01*
X3846830Y1051500D01*
X3837500Y1052330D01*
X3828170Y1050670D01*
X3822330Y1046500D01*
X3817670Y1040670D01*
X3816500Y1034830D01*
X3817670Y1029000D01*
X3822330Y1021500D01*
X3792000Y1024000D01*
Y1046500D01*
G01X369120Y3172020D02*
X673920D01*
Y3029780D01*
X369120D01*
Y3172020D01*
G01X855020Y988880D02*
Y684080D01*
X712780D01*
Y988880D01*
X855020D01*
G01X915980Y1439120D02*
Y1743920D01*
X1058220D01*
Y1439120D01*
X915980D01*
G01X1362120Y1625020D02*
X1666920D01*
Y1482780D01*
X1362120D01*
Y1625020D01*
G01X1086980Y3025120D02*
Y3329920D01*
X1229220D01*
Y3025120D01*
X1086980D01*
G01X2339880Y634980D02*
X2035080D01*
Y777220D01*
X2339880D01*
Y634980D01*
G01X2049880Y3173980D02*
X1745080D01*
Y3316220D01*
X2049880D01*
Y3173980D01*
G01X2891020Y637880D02*
Y333080D01*
X2748780D01*
Y637880D01*
X2891020D01*
G01X2360120Y3712020D02*
X2664920D01*
Y3569780D01*
X2360120D01*
Y3712020D01*
G54D11*
G01X399250Y1043880D02*
Y637480D01*
G01D02*
X208750D01*
G01D02*
Y1043880D01*
G01D02*
X399250D01*
G01X614250Y2687880D02*
Y2281480D01*
G01D02*
X423750D01*
G01D02*
Y2687880D01*
G01D02*
X614250D01*
G01X1168870Y3748500D02*
X292570D01*
G01D02*
Y3367500D01*
G01D02*
X1168870D01*
G01X974750Y308120D02*
Y714520D01*
G01D02*
X1165250D01*
G01D02*
Y308120D01*
G01D02*
X974750D01*
G01X1319750Y783120D02*
Y1189520D01*
G01X1510250Y783120D02*
X1319750D01*
G01Y1189520D02*
X1510250D01*
G01X1168870Y3367500D02*
Y3748500D01*
G01X1513250Y3386480D02*
X1322750D01*
G01D02*
Y3792880D01*
G01D02*
X1513250D01*
G01X2422880Y299750D02*
X2016480D01*
G01D02*
Y490250D01*
G01D02*
X2422880D01*
G01X1510250Y1189520D02*
Y783120D01*
G01X2473600Y1008650D02*
X2072280D01*
G01D02*
Y1275350D01*
G01D02*
X2473600D01*
G01X2034120Y1999250D02*
X2440520D01*
G01Y1808750D02*
X2034120D01*
G01D02*
Y1999250D01*
G01X1993720Y2398650D02*
X1592400D01*
G01D02*
Y2510410D01*
G01D02*
X1570810Y2532000D01*
G01D02*
X1592400Y2553590D01*
G01X1993720Y2665350D02*
Y2398650D01*
G01X1959350Y2252720D02*
Y1851400D01*
G01D02*
X1847590D01*
G01D02*
X1826000Y1829810D01*
G01D02*
X1804410Y1851400D01*
G01D02*
X1692650D01*
G01D02*
Y2252720D01*
G01D02*
X1959350D01*
G01X2447880Y2595750D02*
X2041480D01*
G01D02*
Y2786250D01*
G01D02*
X2447880D01*
G01X1815880Y2729750D02*
X1409480D01*
G01D02*
Y2920250D01*
G01D02*
X1815880D01*
G01D02*
Y2729750D01*
G01X1592400Y2553590D02*
Y2665350D01*
G01D02*
X1993720D01*
G01X2147750Y3042120D02*
Y3448520D01*
G01X2338250Y3042120D02*
X2147750D01*
G01X2108880Y3593750D02*
X1702480D01*
G01D02*
Y3784250D01*
G01D02*
X2108880D01*
G01D02*
Y3593750D01*
G01X2147750Y3448520D02*
X2338250D01*
G01X1513250Y3792880D02*
Y3386480D01*
G01X2422880Y490250D02*
Y299750D01*
G01X3295600Y851650D02*
X2894280D01*
G01D02*
Y1118350D01*
G01X2473600Y1120410D02*
Y1008650D01*
G01X2830750Y1205120D02*
Y1611520D01*
G01D02*
X3021250D01*
G01Y1205120D02*
X2830750D01*
G01X2894280Y1118350D02*
X3295600D01*
G01X2473600Y1275350D02*
Y1163590D01*
G01D02*
X2495190Y1142000D01*
G01D02*
X2473600Y1120410D01*
G01X2200650Y1333280D02*
Y1734600D01*
G01D02*
X2312410D01*
G01D02*
X2334000Y1756190D01*
G01D02*
X2355590Y1734600D01*
G01D02*
X2467350D01*
G01D02*
Y1333280D01*
G01D02*
X2200650D01*
G01X2471570Y2893500D02*
Y2512500D01*
G01D02*
X3347870D01*
G01X2659880Y2089750D02*
X2253480D01*
G01D02*
Y2280250D01*
G01D02*
X2659880D01*
G01D02*
Y2089750D01*
G01X2440520Y1999250D02*
Y1808750D01*
G01X2674120Y2010250D02*
X3080520D01*
G01Y1819750D02*
X2674120D01*
G01D02*
Y2010250D01*
G01X3347870Y2893500D02*
X2471570D01*
G01X2978250Y3187480D02*
X2787750D01*
G01D02*
Y3593880D01*
G01X2447880Y2786250D02*
Y2595750D01*
G01X2338250Y3448520D02*
Y3042120D01*
G01X2787750Y3593880D02*
X2978250D01*
G01X3754520Y881750D02*
X3348120D01*
G01D02*
Y1072250D01*
G01X3444250Y800880D02*
Y394480D01*
G01D02*
X3253750D01*
G01D02*
Y800880D01*
G01D02*
X3444250D01*
G01X3295600Y1118350D02*
Y1006590D01*
G01D02*
X3317190Y985000D01*
G01D02*
X3295600Y963410D01*
G01D02*
Y851650D01*
G01X3463500Y2372870D02*
Y1496570D01*
G01D02*
X3844500D01*
G01X3116120Y1466250D02*
X3522520D01*
G01D02*
Y1275750D01*
G01D02*
X3116120D01*
G01D02*
Y1466250D01*
G01X3348120Y1072250D02*
X3754520D01*
G01X3021250Y1611520D02*
Y1205120D01*
G01X3468500Y3296870D02*
Y2420570D01*
G01D02*
X3849500D01*
G01X3844500Y2372870D02*
X3463500D01*
G01X3347870Y2512500D02*
Y2893500D01*
G01X3080520Y2010250D02*
Y1819750D01*
G01X3849500Y3296870D02*
X3468500D01*
G01X2978250Y3593880D02*
Y3187480D01*
G01X3366350Y3382720D02*
Y2981400D01*
G01D02*
X3254590D01*
G01D02*
X3233000Y2959810D01*
G01D02*
X3211410Y2981400D01*
G01D02*
X3099650D01*
G01D02*
Y3382720D01*
G01X3329250Y3828880D02*
Y3422480D01*
G01D02*
X3138750D01*
G01D02*
Y3828880D01*
G01D02*
X3329250D01*
G01X3099650Y3382720D02*
X3366350D01*
G01X3754520Y1072250D02*
Y881750D01*
G01X3844500Y1496570D02*
Y2372870D01*
G01X3849500Y2420570D02*
Y3296870D01*
M02*
